<?xml version="1.0" encoding="UTF-8" standalone="no"?>
<!DOCTYPE svg PUBLIC "-//W3C//DTD SVG 1.1//EN" "http://www.w3.org/Graphics/SVG/1.1/DTD/svg11.dtd">
<svg version="1.1" xmlns="http://www.w3.org/2000/svg" xmlns:xlink="http://www.w3.org/1999/xlink" preserveAspectRatio="xMidYMid meet" viewBox="0 0 640 640" width="640" height="640"><defs><path d="M411.07 435.31C410.48 458.2 405.24 477.12 395.35 492.07C386.4 505.61 371.62 516.53 351.03 524.84C347.72 526.18 345.29 529.07 344.55 532.56C343.19 539.03 342.84 544.46 343.5 548.86C344.19 553.51 345.93 557.28 348.7 560.17C350.26 561.8 352.17 563.05 354.29 563.81C360.44 566.05 369.15 569.21 373.67 570.85C377.92 572.39 378.22 578.29 374.15 580.25C360.7 586.76 347.37 589.93 334.17 589.75C319.8 589.57 305.11 585.54 290.1 577.68C287.26 576.19 287.64 572.02 290.7 571.06C296.11 569.38 306.52 566.14 312.55 564.26C315.94 563.2 318.98 561.24 321.32 558.57C323.23 556.41 324.46 553.45 325.02 549.67C325.72 545.03 325.38 539.09 324 531.86C323.41 528.81 321.36 526.23 318.52 524.98C298.96 516.41 284.86 505.44 276.21 492.07C267.15 478.04 261.72 459.92 259.93 437.69C259.83 436.49 260.9 435.54 262.07 435.77C287.51 440.77 312.43 442.95 336.82 442.31C361.92 441.64 386.94 438.66 411.87 433.36C411.9 433.35 411.9 433.3 411.86 433.3C386.44 431.53 360.99 430.65 335.5 430.65C309.94 430.65 284.69 432.2 259.73 435.31" id="b6URl3wTd5"></path></defs><g><g><g><g><use xlink:href="#b6URl3wTd5" opacity="1" fill-opacity="0" stroke="#f1a0c0" stroke-width="3" stroke-opacity="1"></use></g></g></g></g></svg>